<svg xmlns="http://www.w3.org/2000/svg" data-name="Layer 1" viewBox="0 0 1277.79 410.46"><defs><filter id="a" width="498" height="374" x="40.11" y="34" filterUnits="userSpaceOnUse"><feOffset dx="5" dy="5"/><feGaussianBlur result="blur" stdDeviation="5"/><feFlood flood-color="#000" flood-opacity=".32"/><feComposite in2="blur" operator="in"/><feComposite in="SourceGraphic"/></filter><filter id="b" width="230" height="257" x="1044.11" y="150" filterUnits="userSpaceOnUse"><feOffset dx="7" dy="7"/><feGaussianBlur result="blur-2" stdDeviation="5"/><feFlood flood-color="#000" flood-opacity=".24"/><feComposite in2="blur-2" operator="in"/><feComposite in="SourceGraphic"/></filter><filter id="c" width="251" height="270" x="797.11" y="143" filterUnits="userSpaceOnUse"><feOffset dx="7" dy="7"/><feGaussianBlur result="blur-3" stdDeviation="5"/><feFlood flood-color="#000" flood-opacity=".24"/><feComposite in2="blur-3" operator="in"/><feComposite in="SourceGraphic"/></filter><filter id="d" width="242" height="257" x="572.11" y="150" filterUnits="userSpaceOnUse"><feOffset dx="7" dy="7"/><feGaussianBlur result="blur-4" stdDeviation="5"/><feFlood flood-color="#000" flood-opacity=".24"/><feComposite in2="blur-4" operator="in"/><feComposite in="SourceGraphic"/></filter><filter id="e" width="88" height="69" x="436.11" y="156" filterUnits="userSpaceOnUse"><feOffset dx="7" dy="7"/><feGaussianBlur result="blur-5" stdDeviation="5"/><feFlood flood-color="#000" flood-opacity=".24"/><feComposite in2="blur-5" operator="in"/><feComposite in="SourceGraphic"/></filter></defs><path d="m517.74 44.24-14.23 22.94c-21.24 30.7-47.01 58.68-80.1 76.72-10.16 5.54-21.01 9.61-31.24 14.98l20.3 19.67 48.31 54.15c4.35 14.21 3.98 29.74 8.55 43.93l35.21 63.54c-14.01 16.86-29.37 32.6-45.54 47.39l-63.24-7.36-28.39-13.49-18.73 20.42-42.69-1.15 27.36-35.31-44.23-23.45 20.93-64.32c.87 4.65 1.54 9.42 2.11 14.13 1.02 8.41 1.21 17.89 2.65 26.09.24 1.37.46 3.14 1.46 4.17l96.6 49.59 36.37 3.98 27.26-22.68-36.27-65.19-30.34.06-64.84-54.52-2.53-1.23-82.35 17.56-157.24 150.78-52.46.95c-.28-1.08.45-1.25.93-1.88 5.23-6.82 14.96-14.43 21.26-20.6 49.8-48.74 99.58-97.5 149.92-145.57 4.52-4.32 14.53-15.05 19.09-17.8 3.04-1.84 7.84-2.02 11.22-3.15l78.12-16.22c1.01-.77.28-.75.09-1.36-3.28-10.33-5.87-15.65-2.16-26.95 9.5-28.92 46.25-35.44 71.1-44.49 41.73-15.19 76.88-34.11 112.19-60.88.67-.51 5.23-3.83 5.57-3.48Zm-81.85 219.91c.88-1-2.34-10.08-4.05-11.25l-26.55-23.11c3.06 7.19 5.9 15.79 9.54 22.63 5.1 9.58 11.67 8.69 21.06 11.73Z" style="filter:url(#a);fill:#fff"/><path d="m531.41 21.23-15.32 24.7c-22.87 33.06-50.63 63.19-86.26 82.63-10.94 5.97-22.63 10.35-33.64 16.13l21.86 21.19 52.03 58.32c4.69 15.3 4.28 32.03 9.21 47.31l37.92 68.43c-15.09 18.16-31.63 35.11-49.05 51.03l-68.11-7.93-30.58-14.53-20.17 21.99-45.98-1.24 29.47-38.02-47.63-25.25 22.54-69.27c.93 5.01 1.66 10.15 2.27 15.22 1.09 9.06 1.31 19.26 2.85 28.1.26 1.48.5 3.38 1.57 4.49l104.04 53.41 39.17 4.29 29.35-24.43-39.06-70.21-32.68.07-69.83-58.71-2.72-1.32-88.69 18.91L84.63 388.92l-56.5 1.02c-.3-1.17.48-1.34 1-2.02 5.63-7.34 16.11-15.54 22.9-22.18 53.63-52.49 107.24-105 161.46-156.77 4.87-4.65 15.65-16.2 20.55-19.17 3.27-1.98 8.45-2.17 12.08-3.4l84.14-17.47c1.08-.82.3-.81.1-1.46-3.54-11.13-6.32-16.86-2.32-29.02 10.23-31.14 49.81-38.17 76.57-47.91 44.94-16.36 82.8-36.74 120.82-65.56.73-.55 5.63-4.12 6-3.75Zm-88.14 236.84c.95-1.07-2.52-10.86-4.36-12.12l-28.6-24.89c3.3 7.74 6.36 17.01 10.28 24.37 5.5 10.32 12.57 9.36 22.68 12.64Z" style="fill:#fff"/><path d="M1252.04 158.92v51.38c-.6.22-.97-.82-1.22-.82h-133.35v33.44h127.23v49.75h-127.23v42.41h134.57v49.75h-199.82V158.92h199.82Z" style="filter:url(#b);fill:#fff"/><path d="M805.92 311.43h56.68c3.01 6.98 4.01 14.02 9.8 19.56 13.25 12.69 53.05 11.42 69.89 7.11 7.96-2.04 17.65-5.9 19.21-15.04 2.36-13.83-8.4-18.48-19.57-21.63-44.45-12.57-128.45-6.3-132.78-69.48-5.26-76.78 79.96-86.08 137.35-77.82 41.31 5.95 73.82 24.63 75.58 70.48.04 1.02-.15 3.63-1.26 3.63H962.1c-4.22-10.27-6.03-18.7-16.97-23.81-14.32-6.69-54.15-7.21-66.63 3-6.47 5.3-8.26 12.51-4.67 20.18 3.86 8.23 16.7 11.54 24.89 13.44 30.48 7.04 80.07 9.96 104.82 28.12 32.82 24.09 27.13 78.46-4.41 101.31-33.35 24.17-112.09 25.85-149.39 10.89-29.11-11.67-44.19-39.09-43.83-69.95Z" style="filter:url(#c);fill:#fff"/><path d="M792.06 158.92v53.01h-71.77v172.9h-65.25v-172.9h-74.22v-53.01h211.24z" style="filter:url(#d);fill:#fff"/><path d="M501.81 164.55c-4.9 8.45-9.89 17.07-15.87 24.83-2.99 3.88-11.16 14.82-16.44 13.23-6.13-1.85-19.59-20.58-24.87-25.63l57.19-12.43Z" style="filter:url(#e);fill:#fff"/><path d="M400.84 208.12s3.88 9.74 9.47 23.07c10.31 24.6 16.93 28.38 37.12 29.88l-8.71-18.24-37.88-34.71Z" style="fill:#77b800"/></svg>